<?xml version="1.0" encoding="UTF-8" standalone="no"?>
<svg
   xmlns:dc="http://purl.org/dc/elements/1.1/"
   xmlns:cc="http://creativecommons.org/ns#"
   xmlns:rdf="http://www.w3.org/1999/02/22-rdf-syntax-ns#"
   xmlns:svg="http://www.w3.org/2000/svg"
   xmlns="http://www.w3.org/2000/svg"
   xmlns:sodipodi="http://sodipodi.sourceforge.net/DTD/sodipodi-0.dtd"
   xmlns:inkscape="http://www.inkscape.org/namespaces/inkscape"
   width="32"
   height="32"
   viewBox="0 0 32 32"
   version="1.1"
   id="svg8"
   sodipodi:docname="logo-green.svg"
   inkscape:version="0.92.3 (2405546, 2018-03-11)">
  <metadata
     id="metadata14">
    <rdf:RDF>
      <cc:Work
         rdf:about="">
        <dc:format>image/svg+xml</dc:format>
        <dc:type
           rdf:resource="http://purl.org/dc/dcmitype/StillImage" />
        <dc:title></dc:title>
      </cc:Work>
    </rdf:RDF>
  </metadata>
  <defs
     id="defs12" />
  <sodipodi:namedview
     pagecolor="#ffffff"
     bordercolor="#666666"
     borderopacity="1"
     objecttolerance="10"
     gridtolerance="10"
     guidetolerance="10"
     inkscape:pageopacity="0"
     inkscape:pageshadow="2"
     inkscape:window-width="1835"
     inkscape:window-height="946"
     id="namedview10"
     showgrid="false"
     inkscape:zoom="7.375"
     inkscape:cx="22.5"
     inkscape:cy="16"
     inkscape:window-x="0"
     inkscape:window-y="0"
     inkscape:window-maximized="0"
     inkscape:current-layer="g6" />
  <g
     id="g6"
     style="fill:none;fill-rule:evenodd">
    <path
       d="M 0,0 H 32 V 32 H 0 Z"
       id="path2"
       inkscape:connector-curvature="0"
       style="fill:#c6d634;stroke-width:0.84327406" />
    <path
       d="M 13.955,14.941 10.268,14.047 C 9.6420002,13.902 8.6620002,13.653 8.6620002,12.47 c 0,-1.352 1.4379998,-1.808 2.6469998,-1.808 2.751,0 3.002,1.6 3.084,2.284 h 1.755 v 2.812 C 15.505,15.383 14.744,15.14 13.955,14.941 Z m -2.001,8.994 c 0.791,0 2.738,-0.14 4.193,-1.198 v 0.804 h 2.939 V 20.01 l 1.23,-1.268 2.667,4.799 h 3.523 l -4.042,-6.856 3.94,-4.32 h -3.607 l -3.71,4.238 V 8.4590003 h -2.938 v 1.288 c -0.898,-0.955 -2.349,-1.682 -4.611,-1.682 -4.8969998,0 -5.8139998,2.9699997 -5.8139998,4.6319997 0,2.285 1.23,3.553 3.377,4.072 L 12.144,17.516 c 1.604,0.394 2.751,0.685 2.751,1.87 0,1.58 -1.668,1.952 -3.168,1.952 -2.7509998,0 -3.2099998,-1.599 -3.2099998,-2.451 h -3.023 c 0,1.869 0.958,5.047 6.4599998,5.047 z"
       id="path4"
       inkscape:connector-curvature="0"
       style="fill:#3b4256" />
  </g>
</svg>
