<svg width="120" height="120" viewBox="0 0 120 120" fill="none" xmlns="http://www.w3.org/2000/svg">
<circle cx="60" cy="60" r="60" fill="#784281"/>
<path d="M54.5146 74.4347C54.1682 66.3512 46.7195 59.2497 42.8224 57.979C36.1821 55.8138 35.8938 44.699 45.9981 40.8016C56.1024 36.9042 68.5164 38.6364 78.4764 55.3808C86.4444 68.7762 75.1564 76.7442 68.5164 79.0538C63.9935 80.8822 54.8611 82.5182 54.5146 74.4347Z" fill="white"/>
<circle cx="71.9816" cy="39.3583" r="2.16522" fill="white"/>
<circle cx="83.8185" cy="67.3615" r="2.16522" fill="white"/>
<circle cx="58.1242" cy="84.3946" r="2.16522" fill="white"/>
<circle cx="47.4426" cy="80.6418" r="2.16522" fill="white"/>
<circle cx="39.6457" cy="65.9181" r="2.16522" fill="white"/>
<circle cx="66.4953" cy="62.165" r="2.16522" fill="#696180"/>
<circle cx="61.1556" cy="68.6605" r="2.02087" fill="#696180"/>
<circle cx="74.1468" cy="63.7527" r="2.02087" fill="#696180"/>
<circle cx="69.6722" cy="67.65" r="1.29913" fill="#696180"/>
<circle cx="65.9193" cy="71.9805" r="1.29913" fill="#696180"/>
<circle cx="59.5667" cy="62.1652" r="1.29913" fill="#696180"/>
<circle cx="52.3489" cy="78.3321" r="1.29913" fill="white"/>
<circle cx="77.4651" cy="42.5337" r="1.29913" fill="white"/>
<path fill-rule="evenodd" clip-rule="evenodd" d="M60.0008 93.1998C78.3366 93.1998 93.2008 78.3357 93.2008 59.9998C93.2008 41.664 78.3366 26.7998 60.0008 26.7998C41.6649 26.7998 26.8008 41.664 26.8008 59.9998C26.8008 78.3357 41.6649 93.1998 60.0008 93.1998ZM59.999 88.8694C75.9432 88.8694 88.8685 75.9441 88.8685 59.9999C88.8685 44.0557 75.9432 31.1303 59.999 31.1303C44.0547 31.1303 31.1294 44.0557 31.1294 59.9999C31.1294 75.9441 44.0547 88.8694 59.999 88.8694Z" fill="white"/>
</svg>
