<svg width="120" height="120" viewBox="0 0 120 120" fill="none" xmlns="http://www.w3.org/2000/svg">
<circle cx="60" cy="60" r="60" fill="#91BC55"/>
<path fill-rule="evenodd" clip-rule="evenodd" d="M60.0024 27.6002C55.2128 27.6002 51.1361 30.6532 49.6124 34.9193C45.518 32.979 40.4755 33.7025 37.0881 37.0899C33.7016 40.4764 32.9776 45.5171 34.9161 49.611C30.6513 51.1355 27.5996 55.2114 27.5996 60.0001C27.5996 64.7893 30.6519 68.8656 34.9174 70.3897C32.9789 74.4835 33.703 79.5242 37.0894 82.9107C40.4762 86.2974 45.5173 87.0213 49.6113 85.0824C51.1353 89.348 55.2117 92.4005 60.001 92.4005C64.7898 92.4005 68.8659 89.3485 70.3902 85.0836C74.4837 87.0208 79.5233 86.2964 82.9091 82.9105C86.2954 79.5243 87.0195 74.4841 85.0817 70.3905C89.3468 68.8662 92.3989 64.7901 92.3989 60.0011C92.3989 55.2117 89.3463 51.1352 85.0806 49.6113C87.0191 45.5174 86.2951 40.4766 82.9086 37.0901C79.5232 33.7046 74.4845 32.98 70.3914 34.9162C68.8668 30.6517 64.791 27.6002 60.0024 27.6002Z" fill="white"/>
<circle cx="61.7922" cy="38.9058" r="1.65447" fill="#91BC55"/>
<circle cx="76.1301" cy="46.9024" r="1.65447" fill="#91BC55"/>
<circle cx="80.5422" cy="62.344" r="1.65447" fill="#91BC55"/>
<circle cx="72.2697" cy="76.6828" r="1.65447" fill="#91BC55"/>
<circle cx="56.2765" cy="81.3703" r="1.65447" fill="#91BC55"/>
<circle cx="60.6886" cy="71.1679" r="1.65447" fill="#91BC55"/>
<circle cx="68.2714" cy="69.6513" r="0.689362" fill="#91BC55"/>
<circle cx="72.9589" cy="64.6879" r="0.689362" fill="#91BC55"/>
<circle cx="41.9377" cy="73.3737" r="1.65447" fill="#91BC55"/>
<circle cx="37.2502" cy="57.1049" r="1.65447" fill="#91BC55"/>
<circle cx="46.7638" cy="57.7943" r="2.34383" fill="#91BC55"/>
<circle cx="56.966" cy="56.967" r="3.17106" fill="#91BC55"/>
<circle cx="65.2389" cy="59.7245" r="4.27404" fill="#91BC55"/>
<circle cx="64.9625" cy="60.0001" r="4.27404" fill="#91BC55"/>
<circle cx="52.0026" cy="68.5482" r="4.27404" fill="#91BC55"/>
<circle cx="46.0744" cy="42.7663" r="1.65447" fill="#91BC55"/>
<circle cx="63.3083" cy="49.7976" r="2.06809" fill="#91BC55"/>
<circle cx="71.028" cy="55.0368" r="2.06809" fill="#91BC55"/>
<circle cx="55.1736" cy="49.9355" r="0.551489" fill="#91BC55"/>
</svg>
