<svg width="58" height="40" viewBox="0 0 58 40" fill="none" xmlns="http://www.w3.org/2000/svg">
<rect x="0.529297" width="56.7892" height="40" fill="#70CEE8"/>
<path d="M14.097 26.6658C15.0673 26.6658 17.4648 26.4981 19.2521 25.2091V26.189H22.8666V21.8911L24.3771 20.3488L27.6582 26.1857H31.9897L27.018 17.8431L31.8596 12.585H27.4248L22.8666 17.7444V7.83651H19.2521V9.40179C18.1483 8.2377 16.3644 7.35312 13.5835 7.35312C7.56144 7.35312 6.43439 10.9671 6.43439 12.9894C6.43439 15.7714 7.94824 17.3137 10.5858 17.945L14.3271 18.8559C16.3011 19.336 17.7115 19.6912 17.7115 21.1315C17.7115 23.0519 15.6608 23.5057 13.8169 23.5057C10.4324 23.5057 9.86888 21.559 9.86888 20.5231H6.1543C6.1543 22.7987 7.33136 26.6658 14.097 26.6658ZM16.5578 15.7221L12.0229 14.6336C11.2527 14.456 10.0489 14.1535 10.0489 12.7132C10.0489 11.0723 11.8162 10.5133 13.3034 10.5133C16.6845 10.5133 16.9946 12.46 17.0947 13.292H19.2521V16.7119C18.4618 16.2614 17.5248 15.9621 16.5578 15.7221Z" fill="white"/>
<path d="M6.7047 30.3776H8.3387C8.9163 30.3776 9.36217 30.5195 9.6763 30.8032C9.9955 31.0869 10.1551 31.4821 10.1551 31.9888C10.1551 32.4955 9.9955 32.8907 9.6763 33.1744C9.36217 33.4581 8.9163 33.6 8.3387 33.6H6.0207V28.1736H9.7371V28.7968H6.7047V30.3776ZM6.7047 32.992H8.2247C8.6655 32.992 8.98217 32.9059 9.1747 32.7336C9.3723 32.5613 9.4711 32.3105 9.4711 31.9812C9.4711 31.3124 9.05563 30.978 8.2247 30.978H6.7047V32.992ZM12.0819 33.6H11.1699V29.7696H11.8007V32.7336H11.9679L13.6475 29.7696H14.5899V33.6H13.9591V30.636H13.7919L12.0819 33.6ZM16.1042 30.2408C16.4437 29.8608 16.9048 29.6708 17.4874 29.6708C18.0701 29.6708 18.5286 29.8608 18.863 30.2408C19.2025 30.6208 19.3722 31.1021 19.3722 31.6848C19.3722 32.2675 19.2025 32.7488 18.863 33.1288C18.5286 33.5088 18.0701 33.6988 17.4874 33.6988C16.9048 33.6988 16.4437 33.5088 16.1042 33.1288C15.7698 32.7488 15.6026 32.2675 15.6026 31.6848C15.6026 31.1021 15.7698 30.6208 16.1042 30.2408ZM16.5678 32.7184C16.7806 32.9971 17.0872 33.1364 17.4874 33.1364C17.8877 33.1364 18.1942 32.9971 18.407 32.7184C18.6198 32.4347 18.7262 32.0901 18.7262 31.6848C18.7262 31.2795 18.6198 30.9375 18.407 30.6588C18.1942 30.3751 17.8877 30.2332 17.4874 30.2332C17.0872 30.2332 16.7806 30.3751 16.5678 30.6588C16.355 30.9375 16.2486 31.2795 16.2486 31.6848C16.2486 32.0901 16.355 32.4347 16.5678 32.7184ZM20.3804 33.6V29.7696H21.4064L22.3488 31.5176H22.516L23.4584 29.7696H24.4692V33.6H23.8384V30.522H23.6712L22.782 32.1636H22.0676L21.1784 30.522H21.0112V33.6H20.3804ZM29.038 31.4568V31.6772H26.1196C26.1297 32.1383 26.2386 32.498 26.4464 32.7564C26.6541 33.0097 26.953 33.1364 27.3432 33.1364C27.8701 33.1364 28.1944 32.9388 28.316 32.5436H28.9696C28.9037 32.8881 28.7289 33.1668 28.4452 33.3796C28.1665 33.5924 27.7992 33.6988 27.3432 33.6988C26.7605 33.6988 26.3045 33.5088 25.9752 33.1288C25.6458 32.7488 25.4812 32.2548 25.4812 31.6468C25.4812 31.0489 25.6458 30.5701 25.9752 30.2104C26.3045 29.8507 26.7554 29.6708 27.328 29.6708C27.8701 29.6708 28.2881 29.8431 28.582 30.1876C28.8758 30.5271 29.0278 30.9501 29.038 31.4568ZM27.3128 30.2332C26.9834 30.2332 26.72 30.3193 26.5224 30.4916C26.3248 30.6588 26.2032 30.8741 26.1576 31.1376H28.3692C28.3489 30.8792 28.245 30.6639 28.0576 30.4916C27.8701 30.3193 27.6218 30.2332 27.3128 30.2332ZM33.4561 33.0376H34.1629V34.6868H33.5321V33.6H30.2185V34.6868H29.5877V33.0376H30.0969C30.411 32.3688 30.5681 31.6291 30.5681 30.8184V29.7696H33.4561V33.0376ZM32.8101 33.0376V30.332H31.1685V30.8184C31.1685 31.6848 31.0292 32.4245 30.7505 33.0376H32.8101Z" fill="white"/>
</svg>
