<svg width="122" height="40" viewBox="0 0 122 40" fill="none" xmlns="http://www.w3.org/2000/svg">
<path d="M66.5247 32.5407C66.5444 32.3936 66.5347 32.244 66.4963 32.1007C66.4578 31.9573 66.3913 31.823 66.3006 31.7055C66.0005 31.503 65.6438 31.4011 65.282 31.4144C64.3652 31.4144 63.7919 31.6094 63.6813 32.1246C63.5154 32.8842 64.4875 33.117 65.2384 33.1956C66.7081 33.3498 69.3274 33.9173 68.7686 36.4872C68.1691 39.2229 65.4275 40 63.53 40C61.0853 40 58.9083 39.1065 59.4729 36.3038L62.3833 36.1816C62.1592 37.1537 62.6103 37.7299 63.9432 37.7183C64.6126 37.7183 65.4974 37.5989 65.608 36.9063C65.8262 35.5035 63.8792 36.0506 61.8099 35.064C61.3378 34.8216 60.9627 34.4251 60.7467 33.9402C60.5308 33.4554 60.4869 32.9113 60.6225 32.3981C61.2686 29.9505 63.8909 29.1036 65.5032 29.1036C67.6714 29.1036 69.9328 29.9156 69.4264 32.4272L66.5247 32.5407Z" fill="#006EA7"/>
<path d="M68.9355 39.5576L71.1707 29.2229H79.1742L78.6823 31.4959H73.5892L73.2429 33.0966H77.7859L77.2912 35.3638H72.7539L72.3378 37.2846H77.4309L76.939 39.5576H68.9355Z" fill="#006EA7"/>
<path d="M95.9224 29.2229H98.9055L92.9887 39.5576H90.2675L88.792 29.2229H92.0079L92.6162 36.039H92.6424L95.9224 29.2229Z" fill="#006EA7"/>
<path d="M97.3516 39.5576L99.5867 29.2229H102.497L100.262 39.5576H97.3516Z" fill="#006EA7"/>
<path d="M101.709 39.5576L103.941 29.2229H111.945L111.453 31.4959H106.36L106.016 33.0966H110.556L110.065 35.3638H105.524L105.111 37.2846H110.204L109.712 39.5576H101.709Z" fill="#006EA7"/>
<path d="M86.0241 34.5693C87.1125 34.8108 87.3599 35.0582 87.1416 37.6339C87.0369 38.8941 87.1591 38.7282 87.226 39.5576H84.2429C84.1394 38.7441 84.1131 37.9227 84.1643 37.1042C84.1643 37.1042 84.3128 35.8702 82.8285 35.8702H81.7371L80.9397 39.5576H78.0293L80.2645 29.2229H85.1247C86.9001 29.2229 88.5823 29.4121 88.4629 31.6968C88.3814 33.2683 87.0078 34.1415 86.0241 34.5693ZM83.3611 33.603C84.2953 33.603 85.1335 33.6758 85.3663 32.6834C85.6137 31.6298 84.7202 31.4959 83.7889 31.4959H82.6539L82.226 33.603H83.3611Z" fill="#006EA7"/>
<path d="M29.6855 18.1636H97.4445L32.9393 14.5547L29.6855 18.1636Z" fill="#006EA7"/>
<path d="M34.1123 13.2742H83.8882L37.3632 9.66531L34.1123 13.2742Z" fill="#006EA7"/>
<path d="M38.5361 8.38185H69.968L41.787 4.77591L38.5361 8.38185Z" fill="#006EA7"/>
<path d="M42.96 3.49243H55.9984L46.2137 0L42.96 3.49243Z" fill="#006EA7"/>
<path d="M62.9831 21.4232H0L59.7322 25.032L62.9831 21.4232Z" fill="#006EA7"/>
<path d="M58.56 26.3126H12.1602L55.3092 29.9214L58.56 26.3126Z" fill="#006EA7"/>
<path d="M54.1352 31.202H24.7959L50.8844 34.8108L54.1352 31.202Z" fill="#006EA7"/>
<path d="M49.7113 36.0914H36.6729L46.4575 39.5838L49.7113 36.0914Z" fill="#006EA7"/>
<path d="M118.911 34.5693C119.999 34.8108 120.25 35.0582 120.031 37.6339C119.927 38.8941 120.049 38.7282 120.116 39.5576H117.133C117.028 38.7443 117.001 37.9226 117.054 37.1042C117.054 37.1042 117.199 35.8702 115.715 35.8702H114.624L113.829 39.5576H110.919L113.151 29.2229H118.014C119.787 29.2229 121.469 29.4121 121.353 31.6968C121.271 33.2683 119.897 34.1415 118.911 34.5693ZM116.251 33.603C117.182 33.603 118.02 33.6758 118.253 32.6834C118.503 31.6298 117.61 31.4959 116.679 31.4959H115.541L115.116 33.603H116.251Z" fill="#006EA7"/>
<path d="M17.2875 0.619904L16.1292 6.32712L11.5716 2.70081L14.3481 7.82305L8.52734 7.97147L13.9464 10.1077L9.58089 13.9668L15.1077 12.1187L14.2491 17.8783L17.2875 12.9162L20.3289 17.8754L19.4732 12.1187L24.9942 13.9697L20.6315 10.1077L26.0477 7.96856L20.227 7.82305L23.0064 2.70081L18.4459 6.32712L17.2875 0.619904Z" fill="#006EA7"/>
</svg>
