<svg width="78" height="40" viewBox="0 0 78 40" fill="none" xmlns="http://www.w3.org/2000/svg">
<g clip-path="url(#clip0)">
<path d="M71.2928 9.41277C70.3095 8.39982 69.1889 7.52895 67.9651 6.82675L67.4184 7.84058C68.5506 8.49015 69.587 9.29584 70.4965 10.2331C73.0117 12.8246 74.5672 16.4049 74.5672 20.3597C74.5672 24.7754 72.6268 28.7229 69.5779 31.3501C68.5935 32.1982 67.4927 32.9065 66.3052 33.4502C64.5823 34.2393 62.6764 34.681 60.6693 34.681C60.4327 34.681 60.1981 34.6737 59.964 34.6617V32.3537L58.8386 32.356L47.7861 31.7366L48.2979 9.66272L59.9728 7.87303V-0.000209808H0.944336V40.0001H59.964V35.8232C60.1981 35.8343 60.433 35.841 60.6693 35.841C62.839 35.841 64.8992 35.3636 66.7616 34.5106C68.0456 33.9227 69.2352 33.157 70.2993 32.2403C73.5953 29.4005 75.6929 25.1329 75.6929 20.3597C75.6929 16.0848 74.0115 12.2142 71.2928 9.41277Z" fill="#BFDF14"/>
<path d="M58.7124 22.4699H57.7649V19.4989H56.5705L56.5294 20.8781C56.5087 21.6353 56.4607 22.5833 55.3898 22.5833C55.1767 22.5833 55.0122 22.555 54.9092 22.5123V21.6917C54.971 21.7201 55.0669 21.7484 55.2042 21.7484C55.4856 21.7484 55.5614 21.4654 55.575 20.9913L55.6298 18.7064H58.7124V22.4699Z" fill="#5D6163"/>
<path d="M62.1432 20.2416C62.1432 19.5768 61.7176 19.3856 61.4019 19.3856C61.0858 19.3856 60.6603 19.5768 60.6603 20.2416H62.1432ZM60.626 20.8926C60.626 21.0978 60.7085 21.791 61.4841 21.791C61.7519 21.791 62.0266 21.6281 62.102 21.3522H63.0836C63.0836 21.7696 62.5687 22.5832 61.4291 22.5832C60.4543 22.5832 59.6719 22.0172 59.6719 20.5459C59.6719 19.5201 60.18 18.5934 61.4019 18.5934C62.6992 18.5934 63.1316 19.5058 63.1316 20.8926H60.626Z" fill="#5D6163"/>
<path d="M64.824 19.4989H63.7188V18.7066H66.8766V19.4989H65.7716V22.4699H64.824V19.4989Z" fill="#5D6163"/>
<path d="M17.59 32.2131C16.7587 32.2131 16.5993 31.4592 16.5993 30.9172C16.5993 30.3755 16.7587 29.6388 17.59 29.6388C18.4218 29.6388 18.5738 30.3837 18.5738 30.9271C18.5738 31.4677 18.4218 32.2131 17.59 32.2131ZM17.59 28.7022C16.4932 28.7022 15.4932 29.402 15.4932 30.9271C15.4932 32.4523 16.4932 33.151 17.59 33.151C18.6881 33.151 19.6802 32.4417 19.6802 30.9172C19.6802 29.3935 18.6881 28.7022 17.59 28.7022Z" fill="#5D6163"/>
<path d="M34.2117 32.2785H33.4205V31.1945H34.1986C34.5958 31.1945 34.8548 31.3655 34.8548 31.7345C34.8548 32.1522 34.6086 32.2785 34.2117 32.2785ZM33.4205 29.5741H34.1294C34.4883 29.5741 34.7311 29.6995 34.7311 30.0448C34.7311 30.3763 34.4786 30.5242 34.1215 30.5242H33.4205V29.5741ZM35.0219 30.8154C35.4497 30.7043 35.7856 30.3915 35.7856 29.9044C35.7856 29.1981 35.1153 28.8123 34.1986 28.8123H32.3467V33.0401H34.4029C35.3323 33.0401 35.9076 32.67 35.9076 31.8859C35.9076 31.1945 35.4412 30.9186 35.0219 30.8154Z" fill="#5D6163"/>
<path d="M9.23798 28.1919C10.1926 28.1919 10.3745 28.8596 10.4661 29.2037H11.619C11.5558 28.3644 10.8871 27.186 9.23117 27.186C7.80674 27.186 6.69238 28.1983 6.69238 30.1947C6.69238 32.1589 7.74546 33.1885 9.2167 33.1885C10.6045 33.1885 11.3909 32.3253 11.619 31.0831H10.4661C10.3294 31.7821 9.87942 32.1814 9.23798 32.1814C8.26292 32.1814 7.84362 31.2334 7.84362 30.2111C7.84362 28.6006 8.68279 28.1919 9.23798 28.1919Z" fill="#5D6163"/>
<path d="M72.8848 7.77237C71.7543 6.60741 70.4661 5.60615 69.0587 4.79871C66.574 3.37357 63.7147 2.55853 60.6695 2.55853C60.4369 2.55853 60.2059 2.56701 59.9756 2.57636V3.7346C60.2057 3.72466 60.4369 3.71852 60.6695 3.71852C63.5164 3.71852 66.1894 4.48036 68.512 5.81254C69.8277 6.56736 71.032 7.50342 72.0888 8.59267C75.0111 11.604 76.8188 15.7643 76.8188 20.3599C76.8188 25.4907 74.564 30.0777 71.0213 33.1303L71.7427 34.0205C75.5323 30.7551 77.9445 25.8485 77.9445 20.3599C77.9445 15.4442 76.0112 10.9939 72.8848 7.77237Z" fill="#5D6163"/>
<path d="M15.7067 28.8121H14.3858L13.0309 30.4156V28.8121H11.9551V33.0402H13.0309V31.7051L13.478 31.2239L14.4553 33.0402H15.745L14.2655 30.446L15.7067 28.8121Z" fill="#5D6163"/>
<path d="M20.4214 30.7931C20.4214 32.0809 20.254 32.2449 19.9312 32.2449C19.7717 32.2449 19.6356 32.2297 19.6123 32.2133V33.0401C19.7717 33.1012 20.079 33.1321 20.2671 33.1321C21.0228 33.1321 21.4955 32.6226 21.4955 31.0048V29.7018H22.647V33.0401H23.7225V28.8114H20.4214V30.7931Z" fill="#5D6163"/>
<path d="M59.9729 8.35036V7.67564H46.1379C45.5541 10.7841 43.259 12.0531 40.71 12.0531V15.0475H45.7461V33.0456H59.9644V32.3151C52.8723 31.7751 49.0276 25.776 49.0276 20.1979C49.0276 14.1451 53.7015 8.9289 59.9729 8.35036Z" fill="#5D6163"/>
<path d="M29.908 32.2131C29.0768 32.2131 28.9174 31.4592 28.9174 30.9172C28.9174 30.3755 29.0768 29.6388 29.908 29.6388C30.7356 29.6388 30.8939 30.3837 30.8939 30.9271C30.8939 31.4677 30.7356 32.2131 29.908 32.2131ZM29.908 28.7022C28.8098 28.7022 27.8115 29.402 27.8115 30.9271C27.8115 32.4523 28.8098 33.151 29.908 33.151C31.0065 33.151 31.9966 32.4417 31.9966 30.9172C31.9966 29.3935 31.0065 28.7022 29.908 28.7022Z" fill="#5D6163"/>
<path d="M19.3721 16.4319C18.6263 15.9826 17.7454 15.6914 16.8319 15.4543L12.5583 14.382C11.8318 14.209 10.6962 13.9081 10.6962 12.4921C10.6962 10.8731 12.364 10.3247 13.764 10.3247C16.9525 10.3247 17.2436 12.2433 17.3386 13.0633H19.3721V16.4319ZM31.3781 25.758L26.6912 17.5436L31.2564 12.3658H27.0756L22.7793 17.4454V7.68719H19.3721V9.23102C18.3352 8.08272 16.6532 7.21477 14.0316 7.21477C8.3551 7.21477 7.28954 10.7734 7.28954 12.7651C7.28954 15.5023 8.7171 17.023 11.2043 17.6445L14.73 18.5391C16.5908 19.0129 17.9199 19.3611 17.9199 20.7795C17.9199 22.6721 15.9859 23.1191 14.2463 23.1191C11.0579 23.1191 10.5276 21.2031 10.5276 20.1832H7.02344C7.02344 22.4231 8.13467 26.2308 14.5116 26.2308C15.4279 26.2308 17.6856 26.0647 19.3721 24.7954V25.758H22.7762L22.7793 21.5247L24.2006 20.0092L27.2943 25.758H31.3781Z" fill="#5D6163"/>
<path d="M38.1239 32.2131C37.2935 32.2131 37.1318 31.4592 37.1318 30.9172C37.1318 30.3755 37.2935 29.6388 38.1239 29.6388C38.9551 29.6388 39.106 30.3837 39.106 30.9271C39.106 31.4677 38.9551 32.2131 38.1239 32.2131ZM38.1239 28.7022C37.0271 28.7022 36.0254 29.402 36.0254 30.9271C36.0254 32.4523 37.0271 33.151 38.1239 33.151C39.2232 33.151 40.2124 32.4417 40.2124 30.9172C40.2124 29.3935 39.2232 28.7022 38.1239 28.7022Z" fill="#5D6163"/>
<path d="M28.0231 28.8121H26.7033L25.3475 30.4156V28.8121H24.2715V33.0402H25.3475V31.7051L25.7961 31.2239L26.772 33.0402H28.0617L26.581 30.446L28.0231 28.8121Z" fill="#5D6163"/>
<path d="M69.6967 11.0567L68.9007 11.8771C71.0074 14.048 72.3107 17.047 72.3107 20.3598C72.3107 24.0585 70.6848 27.3651 68.131 29.5658C67.3066 30.2762 66.3846 30.8697 65.3896 31.3251L65.8461 32.3854C66.9372 31.8858 67.9486 31.2351 68.8524 30.456C71.6534 28.0427 73.4364 24.4163 73.4364 20.3598C73.4364 16.7266 72.0074 13.4375 69.6967 11.0567Z" fill="#5D6163"/>
</g>
<defs>
<clipPath id="clip0">
<rect width="77" height="40" fill="white" transform="translate(0.944336)"/>
</clipPath>
</defs>
</svg>
